<svg width="13.176514" height="13.176468" viewBox="0 0 13.1765 13.1765" fill="none" xmlns="http://www.w3.org/2000/svg" xmlns:xlink="http://www.w3.org/1999/xlink">
	<desc>
			Created with Pixso.
	</desc>
	<defs/>
	<path id="Vector" d="M11.29 6.58C11.29 9.18 9.18 11.29 6.58 11.29C3.98 11.29 1.88 9.18 1.88 6.58C1.88 3.98 3.98 1.88 6.58 1.88C9.18 1.88 11.29 3.98 11.29 6.58ZM13.17 6.58C13.17 10.22 10.22 13.17 6.58 13.17C2.94 13.17 0 10.22 0 6.58C0 2.94 2.94 0 6.58 0C10.22 0 13.17 2.94 13.17 6.58ZM7.52 4.7C7.52 4.18 7.1 3.76 6.58 3.76C6.06 3.76 5.64 4.18 5.64 4.7L5.64 6.58C5.64 6.94 5.84 7.27 6.16 7.43L8.04 8.37C8.51 8.6 9.07 8.41 9.31 7.95C9.54 7.48 9.35 6.92 8.89 6.68L7.52 6L7.52 4.7Z" fill="#FFFFFF" fill-opacity="1.000000" fill-rule="evenodd"/>
</svg>
