<svg width="24.000000" height="24.000000" viewBox="0 0 24 24" fill="none" xmlns="http://www.w3.org/2000/svg">
	<desc>
			Created with Pixso.
	</desc>
	<defs>
		<clipPath id="clip2_894">
			<rect id="SVG" rx="-0.500000" width="23.000000" height="23.000000" transform="translate(0.500000 0.500000)" fill="white" fill-opacity="0"/>
		</clipPath>
	</defs>
	<g opacity="0.500000">
		<g clip-path="url(#clip2_894)">
			<path id="Vector" d="M9 19L9 19.5C9 19.77 8.77 20 8.5 20L8 20L6 20C4.89 20 4 19.1 4 18L4 10C4 9.33 4.33 8.7 4.89 8.33L10.89 4.33C11.56 3.88 12.43 3.88 13.1 4.33L19.1 8.33C19.66 8.7 20 9.33 20 10L20 18C20 19.1 19.1 20 18 20L16 20L15.5 20C15.22 20 15 19.77 15 19.5L15 19L15 16C15 14.34 13.65 13 12 13C10.34 13 9 14.34 9 16L9 19Z" stroke="#FFFFFF" stroke-opacity="1.000000" stroke-width="2.000000"/>
		</g>
	</g>
</svg>
