<svg width="24.000000" height="24.000000" viewBox="0 0 24 24" fill="none" xmlns="http://www.w3.org/2000/svg">
	<desc>
			Created with Pixso.
	</desc>
	<defs>
		<clipPath id="clip2_907">
			<rect id="SVG" rx="-0.500000" width="23.000000" height="23.000000" transform="translate(0.500000 0.500000)" fill="white" fill-opacity="0"/>
		</clipPath>
	</defs>
	<g opacity="0.500000">

	<g clip-path="url(#clip2_907)">
		<path id="Vector" d="M12 1.87C9.55 1.87 9.22 1.88 8.24 1.92C7.17 1.97 6.4 2.15 5.7 2.42C4.95 2.7 4.27 3.14 3.71 3.71C3.14 4.27 2.7 4.95 2.42 5.7C2.15 6.39 1.97 7.17 1.93 8.23C1.88 9.22 1.87 9.55 1.87 12C1.87 14.45 1.88 14.77 1.92 15.76C1.97 16.82 2.15 17.6 2.42 18.29C2.7 19.05 3.14 19.72 3.71 20.28C4.27 20.85 4.95 21.29 5.7 21.57C6.4 21.84 7.17 22.02 8.24 22.07C9.22 22.11 9.55 22.12 12 22.12C14.45 22.12 14.77 22.11 15.76 22.07C16.82 22.02 17.6 21.84 18.3 21.57C19.8 20.99 20.99 19.8 21.57 18.3C21.84 17.6 22.02 16.82 22.07 15.76C22.11 14.77 22.12 14.45 22.12 12C22.12 9.55 22.12 9.23 22.07 8.24C22.03 7.17 21.85 6.4 21.58 5.7C21.3 4.95 20.86 4.27 20.28 3.71C19.72 3.14 19.04 2.7 18.3 2.42C17.6 2.15 16.83 1.97 15.76 1.93C14.77 1.88 14.45 1.87 12 1.87ZM6.93 4.37C7.3 4.27 7.74 4.2 8.34 4.17L8.34 4.17L8.34 4.17L8.34 4.17L8.45 4.17C9.23 4.12 10.18 4.12 11.37 4.12L12 4.12L12.62 4.12C13.89 4.12 14.88 4.12 15.69 4.18C16.24 4.2 16.66 4.27 17.01 4.36C17.41 4.46 17.75 4.6 18.06 4.79C18.29 4.94 18.5 5.1 18.69 5.3L18.7 5.3L18.7 5.31C18.98 5.58 19.2 5.89 19.37 6.24C19.42 6.35 19.47 6.48 19.52 6.61C19.67 7.03 19.79 7.55 19.83 8.34C19.85 8.92 19.86 9.25 19.87 10.01C19.87 10.43 19.87 10.88 19.87 11.37L19.87 12L19.87 12.62C19.87 13.8 19.87 14.75 19.82 15.53L19.82 15.66C19.79 16.27 19.71 16.72 19.61 17.09C19.5 17.51 19.34 17.86 19.12 18.17L19.09 18.2C18.85 18.55 18.55 18.85 18.21 19.09L18.17 19.12C17.86 19.34 17.52 19.49 17.1 19.6C16.73 19.71 16.28 19.79 15.66 19.82L15.53 19.82C14.75 19.87 13.8 19.87 12.62 19.87L12 19.87L11.37 19.87C10.19 19.87 9.24 19.87 8.46 19.82L8.33 19.82C7.72 19.79 7.28 19.71 6.91 19.61C6.52 19.51 6.2 19.37 5.9 19.18C5.69 19.04 5.49 18.88 5.31 18.7L5.3 18.68C5.11 18.5 4.95 18.31 4.82 18.09C4.63 17.8 4.49 17.48 4.39 17.11C4.28 16.73 4.2 16.28 4.17 15.66L4.17 15.66L4.17 15.65L4.17 15.66L4.17 15.53C4.12 14.75 4.12 13.8 4.12 12.62L4.12 12L4.12 11.37C4.12 10.1 4.12 9.1 4.18 8.28C4.2 7.78 4.26 7.39 4.34 7.07C4.45 6.57 4.62 6.17 4.87 5.82L4.88 5.8C5 5.63 5.14 5.46 5.3 5.31L5.3 5.3L5.31 5.29C5.48 5.12 5.67 4.97 5.87 4.84C6.18 4.63 6.52 4.48 6.93 4.37ZM12 14.62C13.44 14.62 14.62 13.44 14.62 12C14.62 10.55 13.44 9.37 12 9.37C10.55 9.37 9.37 10.55 9.37 12C9.37 13.44 10.55 14.62 12 14.62ZM12 16.87C14.69 16.87 16.87 14.69 16.87 12C16.87 9.3 14.69 7.12 12 7.12C9.3 7.12 7.12 9.3 7.12 12C7.12 14.69 9.3 16.87 12 16.87ZM16.87 8.24C17.49 8.24 18 7.74 18 7.12C18 6.5 17.49 6 16.87 6C16.25 6 15.75 6.5 15.75 7.12C15.75 7.74 16.25 8.24 16.87 8.24Z" fill="#FFFFFF" fill-opacity="1.000000" fill-rule="evenodd"/>
	</g>
	</g>
</svg>
