<svg width="56.000000" height="48.000000" viewBox="0 0 56 48" fill="none" xmlns="http://www.w3.org/2000/svg">
	<desc>
			Created with Pixso.
	</desc>
	<defs>
		<clipPath id="clip2_887">
			<rect id="SVG" rx="-0.500000" width="55.000000" height="47.000000" transform="translate(0.500000 0.500000)" fill="white" fill-opacity="0"/>
		</clipPath>
	</defs>
	<g clip-path="url(#clip2_887)">
		<path id="Vector" d="M39.41 14.61C39.6 14.54 39.78 14.47 39.92 14.43C43.22 13.42 45.1 18.69 41.78 19.69C38.24 20.79 34.26 21.25 32.1 17.34C31.01 15.37 31.08 13.27 31.91 11.52C31.93 11.47 31.92 11.42 31.89 11.38C30.54 10.12 29.74 8.27 29.83 6.02C30 1.15 34.47 -0.39 38.44 0.07C41.87 0.47 40.9 6 37.49 5.6C36.6 5.5 35.03 5.34 35.16 6.56C35.31 7.85 36.06 7.81 36.82 7.77C37.01 7.76 37.21 7.75 37.39 7.77C40.06 7.96 40.25 12.14 37.85 12.97C37.78 12.99 37.71 13.01 37.62 13.04C36.93 13.25 35.83 13.59 36.8 14.76C37.33 15.4 38.56 14.94 39.41 14.61ZM31.19 19.19C29.55 18.92 26.68 17.89 26.16 17.4C26 17.26 25.98 17.03 26.13 16.89C26.22 16.83 27.71 15.32 28.13 14.41C29.77 10.78 28.73 6.02 24.81 4.77C21.34 3.65 16.45 5.99 16.51 10.09C16.53 11.56 16.8 13.02 17.06 14.49C17.21 15.3 17.36 16.12 17.47 16.94C17.61 17.98 17.63 18.96 17.66 19.95C17.7 21.15 17.73 22.37 17.95 23.75C18.51 27.27 23.28 25.99 23.14 22.57C23.13 22.37 23.34 22.24 23.51 22.36C25.42 23.67 27.65 24.11 29.88 24.45C33.26 24.98 34.46 19.72 31.19 19.19ZM22.2 12.97C21.58 12.97 21.13 11.13 21.48 9.82C21.7 9.03 22.91 8.61 23.24 9.44C23.57 10.29 23.29 12.99 22.2 12.97ZM11.8 26.77C2.94 31.9 5.25 14.72 11.4 18.99C15.63 21.94 17.99 17 14.95 14.59C12.22 12.43 7.56 11.77 4.62 13.76C1.8 15.68 0.27 19.82 0.03 23.24C-0.26 27.2 1.46 30.64 4.65 32.7C8.09 34.94 11.53 34.28 14.65 31.93C17.64 29.66 14.73 25.07 11.8 26.77ZM52.12 34.98C50.76 36.24 47.23 37.8 46.55 35.89C46 34.33 47.16 34.12 48.24 33.93C48.49 33.88 48.74 33.84 48.96 33.78C51.79 32.99 51.51 27.8 48.43 28.02C48.15 28.03 47.74 28.14 47.27 28.26C45.6 28.69 43.13 29.33 42.94 27.1C42.75 24.72 46.65 24.9 48.18 25.13C51.58 25.62 51.69 19.39 48.24 19.5C43.66 19.65 36.96 21.08 37.59 27.37C37.82 29.72 38.95 32.23 41.03 33.31C41.12 33.35 41.16 33.45 41.14 33.55C40.75 35.15 41.01 36.88 41.82 38.36C44.61 43.45 50.79 42.05 54.77 39.65C57.74 37.85 54.69 32.57 52.12 34.98ZM27.23 29.27C27.23 29.27 27.23 29.26 27.24 29.26C33.05 21.17 41.3 30.87 38.16 45.15C37.04 49.53 33.15 48.29 33.04 45.21C32.99 43.9 33.22 42.9 33.46 41.87C33.57 41.39 33.68 40.91 33.76 40.39C34.1 38.25 34.04 36.82 33.99 36.17C33.62 31.26 28.71 31.17 29 35.4C29.13 37.31 29.05 39.04 28.61 40.82C27.74 44.44 22.53 43.57 23.14 39.87L23.15 39.78C23.43 38.09 23.93 35.12 23.52 33.81C23.31 33.13 22.77 32.4 22.15 32.42C21.8 32.43 21.53 32.67 21.43 32.76C19.84 34.28 19.98 39.44 20.07 42.64C20.08 42.98 20.09 43.31 20.09 43.6C20.16 47.67 17.09 47.07 16.07 46.05C13.5 43.51 15.37 26.36 22.64 26.36C24.86 26.36 25.97 28.22 26.42 28.98C26.51 29.14 26.58 29.25 26.62 29.29C26.91 29.51 27.13 29.34 27.23 29.27Z" fill="#FFFFFF" fill-opacity="1.000000" fill-rule="evenodd"/>
	</g>
</svg>
