<svg width="24" height="24" viewBox="0 0 24 24" fill="#FFFFFF" xmlns="http://www.w3.org/2000/svg">
	<desc>
		Created with Pixso.
	</desc>
	<defs>
		<clipPath id="clip2_898">
			<rect id="SVG" rx="-0.5" width="23" height="23" transform="translate(0.5 0.5)" fill="white" fill-opacity="0"/>
		</clipPath>
	</defs>
		<g clip-path="url(#clip2_898)">
			<path id="Vector" d="M10.11 18.23C5.63 18.23 2 14.6 2 10.11C2 5.63 5.63 2 10.11 2C14.6 2 18.23 5.63 18.23 10.11C18.23 11.38 17.94 12.58 17.42 13.65C17 14.52 17.04 15.61 17.73 16.3L21.28 19.84C21.67 20.24 21.67 20.88 21.28 21.28C20.88 21.67 20.24 21.67 19.84 21.28L16.3 17.73C15.61 17.04 14.52 17 13.65 17.42C12.58 17.94 11.38 18.23 10.11 18.23ZM16.2 10.11C16.2 13.48 13.48 16.2 10.11 16.2C6.75 16.2 4.02 13.48 4.02 10.11C4.02 6.75 6.75 4.02 10.11 4.02C13.48 4.02 16.2 6.75 16.2 10.11Z" fill="#FFFFFF" fill-opacity="1.000000" fill-rule="evenodd"/>
		</g>
</svg>
