<svg width="20.000000" height="20.000000" viewBox="0 0 20 20" fill="none" xmlns="http://www.w3.org/2000/svg" >
	<desc>
			Created with Pixso.
	</desc>
	<defs>
		<clipPath id="clip2_26">
			<rect id="SVG" rx="-0.500000" width="19.000000" height="19.000000" transform="translate(0.500000 0.500000)" fill="white" fill-opacity="0"/>
		</clipPath>
	</defs>
	<g clip-path="url(#clip2_26)">
		<path id="Vector" d="M2.38 3.33C2.38 2.8 2.8 2.38 3.33 2.38L5.23 2.38C5.76 2.38 6.19 1.95 6.19 1.42C6.19 0.9 5.76 0.47 5.23 0.47L3.33 0.47C1.75 0.47 0.47 1.75 0.47 3.33L0.47 5.23C0.47 5.76 0.9 6.19 1.42 6.19C1.95 6.19 2.38 5.76 2.38 5.23L2.38 3.33Z" fill="#000000" fill-opacity="1.000000" fill-rule="evenodd"/>
		<path id="Vector" d="M17.61 16.66C17.61 17.19 17.19 17.62 16.66 17.62L14.76 17.62C14.23 17.62 13.8 18.04 13.8 18.57C13.8 19.09 14.23 19.52 14.76 19.52L16.66 19.52C18.24 19.52 19.52 18.24 19.52 16.66L19.52 14.76C19.52 14.23 19.09 13.81 18.57 13.81C18.04 13.81 17.61 14.23 17.61 14.76L17.61 16.66Z" fill="#000000" fill-opacity="1.000000" fill-rule="evenodd"/>
		<path id="Vector" d="M2.38 16.66C2.38 17.19 2.8 17.62 3.33 17.62L5.23 17.62C5.76 17.62 6.19 18.04 6.19 18.57C6.19 19.09 5.76 19.52 5.23 19.52L3.33 19.52C1.75 19.52 0.47 18.24 0.47 16.66L0.47 14.76C0.47 14.23 0.9 13.81 1.42 13.81C1.95 13.81 2.38 14.23 2.38 14.76L2.38 16.66Z" fill="#000000" fill-opacity="1.000000" fill-rule="evenodd"/>
		<path id="Vector" d="M16.66 2.38C17.19 2.38 17.61 2.8 17.61 3.33L17.61 5.23C17.61 5.76 18.04 6.19 18.57 6.19C19.09 6.19 19.52 5.76 19.52 5.23L19.52 3.33C19.52 1.75 18.24 0.47 16.66 0.47L14.76 0.47C14.23 0.47 13.8 0.9 13.8 1.42C13.8 1.95 14.23 2.38 14.76 2.38L16.66 2.38Z" fill="#000000" fill-opacity="1.000000" fill-rule="evenodd"/>
		<path id="Vector" d="M4.28 8.09C4.28 8.62 4.71 9.04 5.23 9.04L8.09 9.04C8.62 9.04 9.04 8.62 9.04 8.09L9.04 5.23C9.04 4.71 8.62 4.28 8.09 4.28L5.23 4.28C4.71 4.28 4.28 4.71 4.28 5.23L4.28 8.09Z" fill="#000000" fill-opacity="1.000000" fill-rule="evenodd"/>
		<path id="Vector" d="M4.28 14.76C4.28 15.28 4.71 15.71 5.23 15.71L8.09 15.71C8.62 15.71 9.04 15.28 9.04 14.76L9.04 11.9C9.04 11.37 8.62 10.95 8.09 10.95L5.23 10.95C4.71 10.95 4.28 11.37 4.28 11.9L4.28 14.76Z" fill="#000000" fill-opacity="1.000000" fill-rule="evenodd"/>
		<path id="Vector" d="M10.95 8.09C10.95 8.62 11.37 9.04 11.9 9.04L14.76 9.04C15.28 9.04 15.71 8.62 15.71 8.09L15.71 5.23C15.71 4.71 15.28 4.28 14.76 4.28L11.9 4.28C11.37 4.28 10.95 4.71 10.95 5.23L10.95 8.09Z" fill="#000000" fill-opacity="1.000000" fill-rule="evenodd"/>
		<path id="Vector" d="M10.95 14.76C10.95 15.28 11.37 15.71 11.9 15.71L14.76 15.71C15.28 15.71 15.71 15.28 15.71 14.76L15.71 11.9C15.71 11.37 15.28 10.95 14.76 10.95L11.9 10.95C11.37 10.95 10.95 11.37 10.95 11.9L10.95 14.76Z" fill="#000000" fill-opacity="1.000000" fill-rule="evenodd"/>
	</g>
</svg>
