<svg width="24.000000" height="24.000000" viewBox="0 0 24 24" fill="#FFFFFF" xmlns="http://www.w3.org/2000/svg" >
	<desc>
			Created with Pixso.
	</desc>
	<defs>
		<clipPath id="clip2_902">
			<rect id="SVG" rx="-0.500000" width="23.000000" height="23.000000" transform="translate(0.500000 0.500000)" fill="white" fill-opacity="0"/>
		</clipPath>
	</defs>

	<g clip-path="url(#clip2_902)">
		<path id="Vector" d="M11.5 9.48L12.48 9.26M12.48 9.26L12.47 9.25L12.47 9.23L12.45 9.16L12.4 8.92C12.35 8.71 12.29 8.43 12.22 8.15C12.09 7.56 11.96 6.98 11.94 6.88L11.94 6.87C11.44 4.2 13.18 2.84 14.21 2.14C14.26 2.1 14.31 2.08 14.35 2.05C14.36 2.1 14.38 2.15 14.39 2.21C14.8 4.19 15.62 5.6 17.17 7.74C18.26 9.23 18.95 10.37 19.38 11.49C19.81 12.61 20 13.77 20 15.34C20 17 19.13 18.66 17.66 19.92C16.19 21.18 14.17 22 12.03 22C7.66 22 4.37 19.37 4.04 15.26C3.83 12.71 4.38 10.79 6.16 8.84C6.53 8.42 6.98 8 7.48 7.61C7.54 7.56 7.63 7.58 7.66 7.66L7.67 7.68L7.68 7.71C7.7 7.74 7.71 7.78 7.74 7.83C7.94 8.28 8.49 9.52 9.36 10.4C9.63 10.67 9.92 10.9 10.23 11.04C10.53 11.19 10.91 11.29 11.32 11.22C11.77 11.14 12.14 10.86 12.34 10.45C12.53 10.08 12.54 9.68 12.49 9.33L12.48 9.29L12.48 9.26L12.48 9.26Z" stroke="#FFFFFF" stroke-opacity="1.000000" stroke-width="2.000000"/>
	</g>
</svg>
