<svg width="24.000000" height="24.000000" viewBox="0 0 24 24" fill="none" xmlns="http://www.w3.org/2000/svg">
	<desc>
			Created with Pixso.
	</desc>
	<defs>
		<clipPath id="clip2_911">
			<rect id="SVG" rx="-0.500000" width="23.000000" height="23.000000" transform="translate(0.500000 0.500000)" fill="white" fill-opacity="0"/>
		</clipPath>
	</defs>
	<g opacity="0.500000">

	<g clip-path="url(#clip2_911)">
		<path id="Vector" d="M20.74 7C19.59 7 18.61 6.62 17.76 5.99C16.79 5.25 16.09 4.18 15.85 2.94C15.79 2.63 15.75 2.32 15.75 1.99L12.48 1.99L12.48 10.92L12.48 15.81C12.48 17.11 11.63 18.22 10.45 18.61C10.11 18.72 9.74 18.78 9.35 18.76C8.86 18.73 8.4 18.58 8 18.34C7.15 17.83 6.57 16.91 6.56 15.85C6.53 14.2 7.87 12.85 9.52 12.85C9.84 12.85 10.16 12.9 10.45 13L10.45 10.56L10.45 9.69C10.14 9.64 9.83 9.62 9.51 9.62C7.7 9.62 6.01 10.37 4.8 11.72C3.89 12.74 3.34 14.05 3.26 15.42C3.15 17.21 3.8 18.92 5.08 20.18C5.27 20.37 5.46 20.54 5.67 20.7C6.76 21.54 8.1 21.99 9.51 21.99C9.83 21.99 10.14 21.97 10.45 21.93C11.76 21.73 12.98 21.13 13.94 20.18C15.11 19.02 15.76 17.47 15.77 15.83L15.75 8.53C16.31 8.97 16.93 9.32 17.59 9.6C18.61 10.03 19.63 10.25 20.74 10.25L20.74 7.88L20.74 7L20.74 7Z" fill="#FFFFFF" fill-opacity="1.000000" fill-rule="evenodd"/>
	</g>
	</g>
</svg>
